<svg id="Layer_1" xmlns="http://www.w3.org/2000/svg" viewBox="0 0 479.2 408"><style>.st0{fill:#ff1240}.st1{fill:#f95555}.st2{fill:#55ff9a}.st3{fill:#00ad73}.st4{fill:#e51010}</style><path class="st0" d="M13.2 396.4L238.3 15.8l225.1 380.6z"/><path class="st1" d="M238.6 398.6l.2-382.8 216.4 374.9z"/><path class="st2" d="M166.2 310.9l72.6-125.6 72.5 125.6z"/><path class="st3" d="M311.5 329.5H166.2c-6.6 0-12.8-3.5-16.1-9.3-3.3-5.7-3.3-12.8 0-18.5L222.7 176c3.3-5.7 9.4-9.3 16.1-9.3 6.6 0 12.8 3.5 16.1 9.3l71.5 123.8c2.3 3.1 3.7 6.9 3.7 11.1-.1 10.3-8.4 18.6-18.6 18.6zm-113.2-37.1h80.8l-40.4-70-40.4 70z"/><path class="st4" d="M472 408H7.9c-3 0-5.3-.8-6.8-3-1.5-2.3-1.5-5.3 0-7.5L233.2 3.4c3-4.5 10.5-4.5 12.8 0l232.1 394.8c1.5 2.3 1.5 4.5 0 6.8-.8 2.2-3.8 3-6.1 3zM21.5 392.9h437L240 20.7 21.5 392.9z"/></svg>