<svg version="1" xmlns="http://www.w3.org/2000/svg" width="1277.333" height="1277.333" viewBox="0 0 958.000000 958.000000"><path d="M474.6 73c-3.6 1.1-8.3 5.5-10.2 9.5-1.4 3.1-1.9 3.9-6.6 11.2-1.6 2.3-2.8 4.4-2.8 4.8 0 .3-4 7.3-9 15.5-4.9 8.2-9 15.4-9 16 0 .5-.4 1-1 1-.5 0-1 .4-1 .9 0 .6-3.4 6.6-7.5 13.4-4.1 6.9-7.5 13-7.5 13.6 0 .6-.4 1.1-.9 1.1s-1.1.8-1.4 1.7c-.8 2.4-4 7.7-4.9 8.1-.5.2-.8.8-.8 1.2 0 .5-3.4 6.5-7.5 13.5-4.1 6.9-7.5 13-7.5 13.4 0 .5-.4 1.1-.8 1.3-.5.1-4.4 6.5-8.8 14.1-10.3 17.8-9.7 16.8-11.5 19.7-4 6.2-15.7 26.6-15.7 27.4 0 .5-.4 1.2-.9 1.5-.4.3-1.4 1.6-2.1 2.8-.6 1.3-1.8 3.3-2.5 4.5-.6 1.3-1.5 2.5-1.8 2.8-.3.3-1.7 2.5-3 5-4.5 7.9-6.7 11.8-9.2 15.7-1.3 2.1-2.6 4.2-2.8 4.8-.2.5-2 3.6-3.9 6.8-1.9 3.2-4 6.6-4.5 7.5-.6.9-2.8 4.8-5 8.5-2.2 3.8-4.5 7.6-5 8.5-.6.9-2.1 3.5-3.3 5.7-1.2 2.2-3.1 5.3-4.2 7-1 1.6-2.5 4.1-3.3 5.5-5.1 9.1-21.7 37.2-23.8 40.2-1 1.5-1.9 3-1.9 3.3 0 .3-4 7.2-8.8 15.3-4.8 8.1-9.1 15.4-9.5 16.2-.4.8-1.6 2.8-2.7 4.5-1.7 2.7-8.6 14.6-12.8 22-.9 1.6-1.9 3.2-2.2 3.5-1 1-4.1 6.5-4.7 8.2-.3 1-.9 1.8-1.4 1.8-.5 0-.9.4-.9 1 0 .5-2 4.4-4.5 8.6-2.5 4.1-4.5 8-4.5 8.5s-.4.9-.8.9-1.8 1.9-3 4.2c-1.2 2.4-3.3 6.1-4.7 8.3-1.3 2.2-3.4 5.8-4.6 8-1.2 2.2-4.4 7.5-7 11.8-2.7 4.3-4.9 8-4.9 8.2 0 .2-2.4 4.3-5.3 9.2-3 4.8-6.4 10.8-7.8 13.3-1.3 2.5-2.6 4.7-3 5-.3.3-2.7 4.3-5.3 9-2.7 4.7-5.5 9.3-6.4 10.2-.8 1-1.2 1.8-.8 1.8.4 0 .2.6-.4 1.2-1.7 2-10.8 17.7-11.5 19.9-.4 1-1 1.9-1.5 1.9-.4 0-1 .8-1.4 1.7-.3 1-1 2.5-1.6 3.3-3.2 4.8-19 32.2-19 33 0 .6-.4 1-1 1-.5 0-1 .4-1 .9 0 .9-21.4 37.6-23.2 39.8-.6.7-.7 1.3-.2 1.3.5 0 .4.4-.2.8-.6.4-2.4 2.9-4 5.7-1.6 2.7-3.3 5.7-3.9 6.6-.5 1-2.9 5.1-5.3 9.3-2.4 4.1-4.7 7.8-5.3 8.1-.5.4-.7 1.1-.4 1.6.4.5.2.9-.3.9s-1.3.8-1.6 1.7c-.3 1-1.2 2.7-1.9 3.8-1.2 1.9-13.2 22.2-15.2 25.7-.5 1-3.9 6.6-7.4 12.5-3.5 5.9-7.1 12.1-8 13.8-.9 1.6-1.9 3.2-2.2 3.5-.3.3-.9 1.2-1.2 2-.4.8-1.6 2.8-2.6 4.5-2.7 4.4-20.2 34.2-24 40.8-1.3 2.3-3.3 5.8-4.6 7.7-1.2 1.9-4.4 7.3-7.1 12-2.7 4.6-5.5 9.4-6.1 10.5-.7 1.1-1.6 2.8-1.9 3.7-.3 1-1 1.8-1.5 1.8s-.9.4-.9.9-2.1 4.5-4.6 8.8c-2.6 4.3-4.9 9.4-5.1 11.4-.8 5.3 2.8 11.3 7.9 13.4 3.4 1.3 52 1.5 470.7 1.5 341.9 0 467.7-.3 470-1.1 3.7-1.3 8.1-7.5 8.1-11.3 0-2.6-6.7-16.2-10.3-21-.4-.6-2.6-4.3-4.8-8.1-2.3-3.9-5.4-9.2-7-11.8-1.6-2.7-2.9-5.3-2.9-5.8s-.4-.9-1-.9c-.5 0-1-.4-1-.9s-2.7-5.5-6-11c-3.3-5.6-6-10.6-6-11.1 0-.6-.4-1-.8-1s-2.1-2.5-3.7-5.5c-4.9-9.1-6-11-9.2-16.1-6-9.7-16.3-27.5-16.3-28.3 0-.4-.9-1.6-2-2.6-1-.9-1.8-2-1.7-2.4.1-.3-2.3-4.7-5.2-9.6-4.9-8.3-6.4-10.7-10.3-17.6-.7-1.3-1.6-2.6-1.9-2.9-.3-.3-2.3-3.7-4.4-7.5-2.2-3.9-4.3-7.2-4.7-7.3-.4-.2-.8-.8-.8-1.4 0-.8-8-15-14-24.8-3.7-6.1-10.6-17.7-10.9-18.4-.2-.5-2.5-4.4-5.2-8.8s-4.9-8.1-4.9-8.3c0-.2-2.2-3.9-4.8-8.2-2.6-4.3-5.1-8.5-5.5-9.3-.4-.8-1.7-3.1-2.9-5s-3.1-5.2-4.2-7.2c-1.2-2-4-6.8-6.3-10.6-2.4-3.9-4.3-7.5-4.3-8.1 0-.6-.4-1.1-.9-1.1s-1.1-.8-1.4-1.8c-.6-1.7-3.7-7.2-4.7-8.2-.9-.9-5-8.3-6.6-11.8-.8-1.7-1.9-3.2-2.4-3.2-.6 0-1-.5-1-1.1 0-.6-2.6-5.4-5.7-10.7-3.1-5.4-6.2-10.6-6.8-11.7-.6-1.1-2.3-3.9-3.8-6.2-1.5-2.4-2.7-4.7-2.7-5.3 0-.5-.4-1-1-1-.5 0-1-.4-1-.9 0-1-7.9-15.2-9-16.1-.3-.3-1.1-1.6-1.8-3-.6-1.4-1.6-3.2-2.2-4-3.4-5.3-9-15.2-9-16 0-.6-.4-1-1-1-.5 0-1-.6-1-1.4 0-.7-.7-1.9-1.5-2.6-.8-.7-1.2-1.6-.9-2.1.3-.5 0-.9-.5-.9-.6 0-1.1-.4-1.1-1 0-.5-2.1-4.4-4.7-8.7-7-11.4-7.1-11.6-8.5-14.3-.7-1.4-2.5-4.4-4-6.7s-2.8-4.6-2.8-5.1c0-.6-.3-1.2-.7-1.4-.5-.2-1.6-1.8-2.5-3.6-1-1.7-2.6-4.7-3.5-6.4-1-1.8-2-3.5-2.3-3.8-1-1-4.1-6.5-4.7-8.3-.3-.9-.9-1.7-1.4-1.7-.5 0-.9-.4-.9-.9 0-.8-7.9-14.4-14.7-25.6-.7-1.1-1.5-2.7-1.9-3.5-.4-.8-2.2-3.9-4.1-6.8-1.8-2.9-3.3-5.4-3.3-5.6 0-.2-1.8-3.4-4-7s-4-6.8-4-7c0-.3-1.3-2.5-3-4.9-1.6-2.5-3-5-3-5.6 0-.6-.4-1.1-.9-1.1s-1.2-1.1-1.5-2.5c-.4-1.4-1.1-2.5-1.6-2.5-.6 0-1-.4-1-1 0-1-11.8-21.5-15.1-26.2-1-1.5-1.9-3.4-1.9-4.3 0-.8-.4-1.5-.8-1.5-.5 0-1.7-1.7-2.9-3.8-3-5.5-5.2-9.3-13.7-23.6-4.2-7.1-8.4-14.3-9.3-16-.9-1.7-1.9-3.3-2.2-3.6-.3-.3-1.3-1.9-2.1-3.5-.8-1.7-2.3-4.3-3.5-6-2.8-4.2-6.5-10.7-7.2-12.8-.3-.9-.9-1.7-1.3-1.7s-1-.8-1.4-1.8c-.3-.9-1.7-3.5-3.1-5.7-1.3-2.2-3.1-5.5-4-7.3-.8-1.7-2-3.2-2.5-3.2-.6 0-1-.8-1-1.9 0-1-.7-2.4-1.5-3.1-.8-.7-1.5-1.6-1.5-2.1 0-.4-1.8-3.7-4-7.1-2.2-3.5-4-6.9-4-7.6 0-.6-.4-1.2-1-1.2-.5 0-1-.7-1-1.5s-.4-1.5-1-1.5c-.5 0-1-.5-1-1 0-.6-1.8-4-4-7.6-2.2-3.6-4-6.7-4-6.9 0-.2-1.8-3.3-4.1-7-2.2-3.7-4.9-8.2-5.9-9.9-2.6-4.7-9.8-16.9-30-51.1-10-17.1-19.1-32.6-20.2-34.5-5.7-9.8-11.4-12.6-20.2-10z"/></svg>