<?xml version="1.0" encoding="utf-8"?>
<!-- Generator: Adobe Illustrator 19.2.1, SVG Export Plug-In . SVG Version: 6.00 Build 0)  -->
<svg version="1.1" id="Layer_1" xmlns="http://www.w3.org/2000/svg" xmlns:xlink="http://www.w3.org/1999/xlink" x="0px" y="0px"
	 viewBox="0 0 479.2 408" style="enable-background:new 0 0 479.2 408;" xml:space="preserve">
<style type="text/css">
	.st0{fill:#FF1240;}
	.st1{fill:#F95555;}
	.st2{fill:#55FF9A;}
	.st3{fill:#00AD73;}
	.st4{fill:#E51010;}
</style>
<polygon class="st0" points="13.2,396.4 238.3,15.8 463.4,396.4 "/>
<polygon class="st1" points="238.6,398.6 238.8,15.8 455.2,390.7 "/>
<polygon class="st2" points="166.2,310.9 238.8,185.3 311.3,310.9 "/>
<path class="st3" d="M311.5,329.5c0,0-0.1,0-0.1,0H166.2c-6.6,0-12.8-3.5-16.1-9.3c-3.3-5.7-3.3-12.8,0-18.5L222.7,176
	c3.3-5.7,9.4-9.3,16.1-9.3c6.6,0,12.8,3.5,16.1,9.3l71.5,123.8c2.3,3.1,3.7,6.9,3.7,11.1C330,321.2,321.7,329.5,311.5,329.5z
	 M198.3,292.4h80.8l-40.4-70L198.3,292.4z"/>
<g>
	<path class="st4" d="M472,408H7.9c-3,0-5.3-0.8-6.8-3c-1.5-2.3-1.5-5.3,0-7.5L233.2,3.4c3-4.5,10.5-4.5,12.8,0l232.1,394.8
		c1.5,2.3,1.5,4.5,0,6.8C477.3,407.2,474.3,408,472,408z M21.5,392.9h437L240,20.7L21.5,392.9z"/>
</g>
</svg>
