<?xml version="1.0" standalone="no"?>
<!DOCTYPE svg PUBLIC "-//W3C//DTD SVG 20010904//EN"
 "http://www.w3.org/TR/2001/REC-SVG-20010904/DTD/svg10.dtd">
<svg version="1.0" xmlns="http://www.w3.org/2000/svg"
 width="958.000000pt" height="958.000000pt" viewBox="0 0 958.000000 958.000000"
 preserveAspectRatio="xMidYMid meet">
<metadata>
Created by potrace 1.11, written by Peter Selinger 2001-2013
</metadata>
<g transform="translate(0.000000,958.000000) scale(0.100000,-0.100000)"
fill="#000000" stroke="none">
<path d="M4746 8850 c-36 -11 -83 -55 -102 -95 -14 -31 -19 -39 -66 -112 -16
-23 -28 -44 -28 -48 0 -3 -40 -73 -90 -155 -49 -82 -90 -154 -90 -160 0 -5 -4
-10 -10 -10 -5 0 -10 -4 -10 -9 0 -6 -34 -66 -75 -134 -41 -69 -75 -130 -75
-136 0 -6 -4 -11 -9 -11 -5 0 -11 -8 -14 -17 -8 -24 -40 -77 -49 -81 -5 -2 -8
-8 -8 -12 0 -5 -34 -65 -75 -135 -41 -69 -75 -130 -75 -134 0 -5 -4 -11 -8
-13 -5 -1 -44 -65 -88 -141 -103 -178 -97 -168 -115 -197 -40 -62 -157 -266
-157 -274 0 -5 -4 -12 -9 -15 -4 -3 -14 -16 -21 -28 -6 -13 -18 -33 -25 -45
-6 -13 -15 -25 -18 -28 -3 -3 -17 -25 -30 -50 -45 -79 -67 -118 -92 -157 -13
-21 -26 -42 -28 -48 -2 -5 -20 -36 -39 -68 -19 -32 -40 -66 -45 -75 -6 -9 -28
-48 -50 -85 -22 -38 -45 -76 -50 -85 -6 -9 -21 -35 -33 -57 -12 -22 -31 -53
-42 -70 -10 -16 -25 -41 -33 -55 -51 -91 -217 -372 -238 -402 -10 -15 -19 -30
-19 -33 0 -3 -40 -72 -88 -153 -48 -81 -91 -154 -95 -162 -4 -8 -16 -28 -27
-45 -17 -27 -86 -146 -128 -220 -9 -16 -19 -32 -22 -35 -10 -10 -41 -65 -47
-82 -3 -10 -9 -18 -14 -18 -5 0 -9 -4 -9 -10 0 -5 -20 -44 -45 -86 -25 -41
-45 -80 -45 -85 0 -5 -4 -9 -8 -9 -4 0 -18 -19 -30 -42 -12 -24 -33 -61 -47
-83 -13 -22 -34 -58 -46 -80 -12 -22 -44 -75 -70 -118 -27 -43 -49 -80 -49
-82 0 -2 -24 -43 -53 -92 -30 -48 -64 -108 -78 -133 -13 -25 -26 -47 -30 -50
-3 -3 -27 -43 -53 -90 -27 -47 -55 -93 -64 -102 -8 -10 -12 -18 -8 -18 4 0 2
-6 -4 -12 -17 -20 -108 -177 -115 -199 -4 -10 -10 -19 -15 -19 -4 0 -10 -8
-14 -17 -3 -10 -10 -25 -16 -33 -32 -48 -190 -322 -190 -330 0 -6 -4 -10 -10
-10 -5 0 -10 -4 -10 -9 0 -9 -214 -376 -232 -398 -6 -7 -7 -13 -2 -13 5 0 4
-4 -2 -8 -6 -4 -24 -29 -40 -57 -16 -27 -33 -57 -39 -66 -5 -10 -29 -51 -53
-93 -24 -41 -47 -78 -53 -81 -5 -4 -7 -11 -4 -16 4 -5 2 -9 -3 -9 -5 0 -13 -8
-16 -17 -3 -10 -12 -27 -19 -38 -12 -19 -132 -222 -152 -257 -5 -10 -39 -66
-74 -125 -35 -59 -71 -121 -80 -138 -9 -16 -19 -32 -22 -35 -3 -3 -9 -12 -12
-20 -4 -8 -16 -28 -26 -45 -27 -44 -202 -342 -240 -408 -13 -23 -33 -58 -46
-77 -12 -19 -44 -73 -71 -120 -27 -46 -55 -94 -61 -105 -7 -11 -16 -28 -19
-37 -3 -10 -10 -18 -15 -18 -5 0 -9 -4 -9 -9 0 -5 -21 -45 -46 -88 -26 -43
-49 -94 -51 -114 -8 -53 28 -113 79 -134 34 -13 520 -15 4707 -15 3419 0 4677
3 4700 11 37 13 81 75 81 113 0 26 -67 162 -103 210 -4 6 -26 43 -48 81 -23
39 -54 92 -70 118 -16 27 -29 53 -29 58 0 5 -4 9 -10 9 -5 0 -10 4 -10 9 0 5
-27 55 -60 110 -33 56 -60 106 -60 111 0 6 -4 10 -8 10 -4 0 -21 25 -37 55
-49 91 -60 110 -92 161 -60 97 -163 275 -163 283 0 4 -9 16 -20 26 -10 9 -18
20 -17 24 1 3 -23 47 -52 96 -49 83 -64 107 -103 176 -7 13 -16 26 -19 29 -3
3 -23 37 -44 75 -22 39 -43 72 -47 73 -4 2 -8 8 -8 14 0 8 -80 150 -140 248
-37 61 -106 177 -109 184 -2 5 -25 44 -52 88 -27 44 -49 81 -49 83 0 2 -22 39
-48 82 -26 43 -51 85 -55 93 -4 8 -17 31 -29 50 -12 19 -31 52 -42 72 -12 20
-40 68 -63 106 -24 39 -43 75 -43 81 0 6 -4 11 -9 11 -5 0 -11 8 -14 18 -6 17
-37 72 -47 82 -9 9 -50 83 -66 118 -8 17 -19 32 -24 32 -6 0 -10 5 -10 11 0 6
-26 54 -57 107 -31 54 -62 106 -68 117 -6 11 -23 39 -38 62 -15 24 -27 47 -27
53 0 5 -4 10 -10 10 -5 0 -10 4 -10 9 0 10 -79 152 -90 161 -3 3 -11 16 -18
30 -6 14 -16 32 -22 40 -34 53 -90 152 -90 160 0 6 -4 10 -10 10 -5 0 -10 6
-10 14 0 7 -7 19 -15 26 -8 7 -12 16 -9 21 3 5 0 9 -5 9 -6 0 -11 4 -11 10 0
5 -21 44 -47 87 -70 114 -71 116 -85 143 -7 14 -25 44 -40 67 -15 23 -28 46
-28 51 0 6 -3 12 -7 14 -5 2 -16 18 -25 36 -10 17 -26 47 -35 64 -10 18 -20
35 -23 38 -10 10 -41 65 -47 83 -3 9 -9 17 -14 17 -5 0 -9 4 -9 9 0 8 -79 144
-147 256 -7 11 -15 27 -19 35 -4 8 -22 39 -41 68 -18 29 -33 54 -33 56 0 2
-18 34 -40 70 -22 36 -40 68 -40 70 0 3 -13 25 -30 49 -16 25 -30 50 -30 56 0
6 -4 11 -9 11 -5 0 -12 11 -15 25 -4 14 -11 25 -16 25 -6 0 -10 4 -10 10 0 10
-118 215 -151 262 -10 15 -19 34 -19 43 0 8 -4 15 -8 15 -5 0 -17 17 -29 38
-30 55 -52 93 -137 236 -42 71 -84 143 -93 160 -9 17 -19 33 -22 36 -3 3 -13
19 -21 35 -8 17 -23 43 -35 60 -28 42 -65 107 -72 128 -3 9 -9 17 -13 17 -4 0
-10 8 -14 18 -3 9 -17 35 -31 57 -13 22 -31 55 -40 73 -8 17 -20 32 -25 32 -6
0 -10 8 -10 19 0 10 -7 24 -15 31 -8 7 -15 16 -15 21 0 4 -18 37 -40 71 -22
35 -40 69 -40 76 0 6 -4 12 -10 12 -5 0 -10 7 -10 15 0 8 -4 15 -10 15 -5 0
-10 5 -10 10 0 6 -18 40 -40 76 -22 36 -40 67 -40 69 0 2 -18 33 -41 70 -22
37 -49 82 -59 99 -26 47 -98 169 -300 511 -100 171 -191 326 -202 345 -57 98
-114 126 -202 100z"/>
</g>
</svg>
